<?xml version="1.0" encoding="utf-8"?>
<!-- Svg Vector Icons : http://www.sfont.cn -->
<!DOCTYPE svg PUBLIC "-//W3C//DTD SVG 1.1//EN" "http://www.w3.org/Graphics/SVG/1.1/DTD/svg11.dtd">
<svg version="1.1" xmlns="http://www.w3.org/2000/svg" xmlns:xlink="http://www.w3.org/1999/xlink" x="0px" y="0px" viewBox="0 0 1000 1000" enable-background="new 0 0 1000 1000" xml:space="preserve">
<metadata> Svg Vector Icons : http://www.sfont.cn </metadata>
<g><path d="M500,173.7C176.2,173.7,10,500,10,500s125.4,326.3,490,326.3c330.2,0,490-325.1,490-325.1S828.9,173.7,500,173.7L500,173.7z M500.7,703.9c-118.4,0-204-89.2-204-204c0-114.7,85.6-203.9,204-203.9c118.4,0,204,89.2,204,203.9C704.7,614.7,619.1,703.9,500.7,703.9L500.7,703.9z M500.7,377.6c-67.7,0.1-122.4,56.8-122.4,122.4c0,65.5,54.7,122.4,122.4,122.4c67.7,0,122.4-56.9,122.4-122.4C623.1,434.4,568.4,377.5,500.7,377.6L500.7,377.6z"/></g>
</svg>