<?xml version="1.0" encoding="utf-8"?>
<!-- Generator: Adobe Illustrator 18.0.0, SVG Export Plug-In . SVG Version: 6.00 Build 0)  -->
<!DOCTYPE svg PUBLIC "-//W3C//DTD SVG 1.1//EN" "http://www.w3.org/Graphics/SVG/1.1/DTD/svg11.dtd">
<svg version="1.1" id="图层_1" xmlns="http://www.w3.org/2000/svg" xmlns:xlink="http://www.w3.org/1999/xlink" x="0px" y="0px"
	 viewBox="0 0 453.5 453.5" enable-background="new 0 0 453.5 453.5" xml:space="preserve">
<g>
	<g>
		<path fill-rule="evenodd" clip-rule="evenodd" fill="#34A5DD" d="M107.3,346.2c-2.1-2.2-4.5-4-7.3-5.2c-2.8-1.3-5.9-1.9-9.1-1.9
			c-2,0-3.9,0.3-5.8,0.8c-1.9,0.5-3.7,1.3-5.4,2.4c-1.7,1.1-3.3,2.4-4.8,4c-1.5,1.6-2.7,3.5-3.8,5.6c-2.1,4.3-3.2,8.7-3.2,13.1
			c0,3.3,0.5,6.4,1.7,9.4c1.1,3,2.7,5.7,4.6,8c2,2.3,4.3,4.1,7.1,5.5c2.8,1.3,5.8,2,9.1,2c4.5,0,8.5-1.1,12-3.3
			c3.6-2.2,6.4-5.5,8.5-10c1-2.2,1.8-4.4,2.3-6.5c0.5-2.1,0.8-4.3,0.8-6.5c0-3.4-0.6-6.5-1.7-9.5C111,351,109.4,348.4,107.3,346.2z
			 M103.3,376.3c-0.6,2.4-1.4,4.3-2.5,5.7c-1.1,1.5-2.3,2.5-3.7,3.1c-1.4,0.6-2.9,0.9-4.6,0.9c-2.3,0-4.4-0.7-6.3-2.1
			c-1.9-1.4-3.5-3.2-4.8-5.6c-1.3-2.3-2.3-5.1-3-8.2c-0.7-3.1-1-6.4-1-9.8c0-3.2,0.3-6,1-8.3c0.6-2.3,1.5-4.1,2.6-5.6
			c1.1-1.5,2.3-2.5,3.8-3.2c1.4-0.7,2.9-1,4.5-1c2.3,0,4.5,0.7,6.3,2c1.8,1.3,3.4,3.1,4.7,5.4c1.3,2.3,2.2,4.9,2.9,8
			c0.7,3.1,1,6.3,1,9.7C104.1,371,103.9,373.9,103.3,376.3z M56,124.8c37.8,65.6,39.5,146.3,144.5,162.7
			c152.4,8,140.6-136.7,140.6-136.7c0,0,6.1,115.2-135.7,115.8C103.5,257.7,104,144.2,59.9,92.2c54.6-8.5,95.1-40.4,95.1-40.4
			S109.6,67.5,69,71.4c-33.7,3.2-63.8-5.2-63.8-5.2S28.5,74.5,56,124.8z M56.6,376.6c-1,1.9-2.1,3.4-3.4,4.5
			c-1.3,1.1-2.8,1.9-4.5,2.3c-1.7,0.4-3.6,0.6-5.8,0.6h-29l46.5-66.5H8l-1.5,17.7h2c0.4-2.6,0.9-4.7,1.4-6.4
			c0.5-1.7,1.3-3.1,2.2-4.2c1-1.1,2.3-1.8,4-2.2c1.7-0.4,4-0.6,6.8-0.6h22.7L0.3,386.4v2h57.6l3.3-18.8l-1.7-0.3
			C58.5,372.2,57.6,374.7,56.6,376.6z M308.2,380.3c-0.9,0.9-1.7,1.6-2.5,2.1c-0.8,0.5-1.7,0.9-2.7,1.3c-1,0.3-2.2,0.5-3.6,0.6
			c-1.4,0.1-3.1,0.2-5.1,0.2h-12c-1,0-1.8-0.1-2.5-0.2c-0.6-0.1-1.1-0.3-1.5-0.4c-0.4-0.2-0.7-0.4-1-0.7c-0.2-0.3-0.4-0.6-0.5-0.9
			c-0.2-0.7-0.4-2.6-0.4-5.7v-23.4h15.5c2.3,0,4.1,0.2,5.5,0.5c1.4,0.4,2.4,0.9,3.1,1.8c0.7,0.8,1.3,1.9,1.6,3.3
			c0.3,1.3,0.6,3,0.9,5h1.9V339H303c-0.1,1.8-0.3,3.4-0.6,4.6c-0.3,1.3-0.9,2.3-1.7,3.2c-0.8,0.8-1.9,1.5-3.3,1.9
			c-1.4,0.4-3.2,0.6-5.5,0.6h-15.5v-28h19.4c2.4,0,4.4,0.1,5.9,0.3c1.6,0.2,2.8,0.8,3.8,1.6c1,0.8,1.8,2,2.3,3.5
			c0.6,1.5,1.1,3.6,1.6,6.2h1.3v-15.5h-54.5v1.9h2.5c2.9,0,5,0.7,6.3,2.1c0.5,0.5,0.8,1.5,1,2.9c0.2,1.4,0.3,3.2,0.3,5.5v46
			c0,3.5-0.2,5.8-0.6,6.9c-0.3,0.6-0.6,1.2-1.1,1.6c-0.5,0.5-1.1,0.8-1.7,1.1c-0.6,0.3-1.3,0.5-2.1,0.7c-0.7,0.1-1.4,0.2-2.1,0.2
			h-2.5v2h54.5l6.1-17.7h-2.1C312.5,375,310.3,378.3,308.2,380.3z M109.6,173.1c0,0-6.1-115.1,135.6-115.7
			c101.9,8.9,101.5,122.2,145.5,174.2c-54.5,8.5-95,40.3-95,40.3s45.4-15.6,85.9-19.5c33.7-3.2,63.8,5.2,63.8,5.2
			s-23.2-8.3-50.8-58.5C356.9,133.6,355.1,53,250.2,36.6C97.9,28.5,109.6,173.1,109.6,173.1z M416.3,343.4
			c-23.1,0-36.9,23.1-36.9,23.1s11.5,27.5,36.9,27.7c25.4,0.2,36.9-27.7,36.9-27.7S439.4,343.4,416.3,343.4z M416.3,387.3
			c-16.5-0.1-27.7-20.5-27.7-20.5s11-16.4,27.7-16.4c16.7,0,27.7,16.4,27.7,16.4S432.9,387.4,416.3,387.3z M247.4,384.4
			c-0.5-0.7-0.7-1.6-0.8-2.8c-0.1-1.1-0.1-2.5-0.1-4.1v-20.6c0-3.4-0.3-6.3-1-8.5c-0.7-2.3-1.5-4.1-2.7-5.5c-1.1-1.4-2.5-2.4-4-3
			c-1.5-0.6-3.2-0.9-4.9-0.9c-1.3,0-2.6,0.1-3.8,0.4c-1.2,0.3-2.5,0.8-3.7,1.5c-1.3,0.7-2.7,1.8-4.2,3.1c-1.5,1.3-3.2,3-5,5.1
			c-0.7-3.3-2.1-5.8-4.3-7.6c-2.1-1.7-4.7-2.6-7.8-2.6c-1.8,0-3.5,0.4-5.4,1.1c-1.8,0.7-3.5,1.8-5.1,3.1c-0.3,0.3-1,0.9-2,1.9
			c-1,1-2.4,2.4-4.1,4.1V339h-2.3l-14.4,5.9l0.7,1.9c1.3-0.5,2.5-0.8,3.5-0.8c0.8,0,1.4,0.1,1.9,0.3c0.5,0.2,0.8,0.8,1.1,1.6
			c0.3,0.9,0.5,2.2,0.6,4c0.1,1.8,0.2,4.2,0.2,7.3v18.3c0,1.8-0.1,3.2-0.2,4.4c-0.1,1.1-0.4,2-0.9,2.7c-0.5,0.7-1.2,1.1-2.2,1.4
			c-1,0.3-2.3,0.4-3.9,0.4v1.9h23.6v-1.9c-2.6,0-4.3-0.2-5.2-0.7c-0.5-0.3-0.9-0.5-1.2-0.8c-0.3-0.3-0.6-0.7-0.8-1.3
			c-0.2-0.6-0.4-1.3-0.5-2.3c-0.1-1-0.2-2.3-0.2-3.9v-25.7c0.6-0.7,1.3-1.5,2.3-2.3c0.9-0.8,1.9-1.5,3-2.2c1.1-0.7,2.2-1.2,3.4-1.6
			c1.2-0.4,2.4-0.6,3.5-0.6c1.2,0,2.3,0.2,3.3,0.6c1,0.4,1.9,1,2.6,2c0.7,0.9,1.3,2.1,1.7,3.6c0.4,1.5,0.6,3.4,0.6,5.6v20.6
			c0,1.8-0.1,3.2-0.2,4.4c-0.1,1.2-0.4,2.1-0.9,2.7c-0.5,0.7-1.3,1.1-2.3,1.4c-1.1,0.2-2.5,0.4-4.3,0.4v1.9h24.1v-1.9
			c-2.4,0-4.2-0.3-5.2-0.8c-1-0.5-1.7-1.2-2.1-2c-0.2-0.4-0.3-1.1-0.4-2.1c-0.1-1-0.1-2.4-0.1-4v-25.7c1.3-1.3,2.5-2.3,3.6-3.2
			c1.1-0.8,2.1-1.5,3.1-2c1-0.5,1.9-0.9,2.8-1.1c0.9-0.2,1.8-0.3,2.7-0.3c1.3,0,2.4,0.2,3.4,0.5c1,0.4,1.8,1,2.5,1.9
			c0.7,0.9,1.2,2.1,1.6,3.6c0.3,1.5,0.5,3.4,0.5,5.7v20.6c0,1.9-0.1,3.4-0.3,4.6c-0.2,1.2-0.6,2.1-1.1,2.7c-0.5,0.6-1.2,1.1-2.1,1.3
			c-0.9,0.2-2,0.3-3.3,0.3h-1v1.9h23.6v-1.9c-1.8,0-3.1-0.2-4.1-0.5C248.5,385.7,247.8,385.1,247.4,384.4z M356.5,342.4
			c1.1,0,2,0.1,2.6,0.2c0.6,0.1,1.1,0.3,1.5,0.6c0.3,0.2,0.6,0.5,0.7,0.8c0.1,0.3,0.2,0.7,0.2,1c0,1.3-0.3,2.7-0.9,4.2l-10.7,26.5
			l-11.6-24.1c-1.2-2.4-1.8-4.3-1.8-5.7c0-1,0.4-1.9,1.2-2.5c0.8-0.7,2-1,3.6-1h1.1v-2h-22.3v2c1.8,0.5,3.1,0.9,3.8,1.5
			c0.3,0.3,0.7,0.7,1.1,1.2c0.5,0.5,0.9,1.1,1.4,1.8c0.5,0.7,0.9,1.3,1.3,2c0.4,0.7,0.7,1.2,0.9,1.6l17.2,36.1l-3.4,8.3
			c-0.6,1.5-1.3,2.8-1.9,3.8c-0.6,1-1.2,1.8-1.8,2.4c-0.6,0.6-1.2,1-1.8,1.3c-0.6,0.3-1.1,0.4-1.6,0.4c-0.2,0-0.6-0.1-1.2-0.3
			c-0.6-0.2-1.4-0.4-2.1-0.7c-0.8-0.2-1.5-0.5-2.3-0.7c-0.7-0.2-1.3-0.3-1.7-0.3c-1.7,0-3,0.4-3.9,1.3c-1,0.9-1.4,2.1-1.4,3.5
			c0,0.8,0.2,1.5,0.5,2.2c0.3,0.7,0.8,1.3,1.4,1.9c0.6,0.5,1.4,1,2.2,1.3c0.9,0.3,1.8,0.5,2.8,0.5c1.4,0,2.8-0.3,4.3-0.9
			c1.5-0.6,3-1.5,4.4-2.7c1.4-1.2,2.8-2.7,4.1-4.4c1.3-1.8,2.4-3.8,3.3-6.1l19.4-47.8c0.6-1.6,1.2-2.8,1.7-3.7
			c0.5-0.9,1-1.6,1.5-2.1c0.5-0.5,1.1-0.8,1.7-1c0.6-0.2,1.3-0.3,2.2-0.4v-2h-15.6V342.4z M160.7,346.2c-2.1-2.2-4.5-4-7.3-5.2
			c-2.8-1.3-5.9-1.9-9.1-1.9c-2,0-3.9,0.3-5.8,0.8c-1.9,0.5-3.7,1.3-5.4,2.4c-1.7,1.1-3.3,2.4-4.8,4c-1.5,1.6-2.8,3.5-3.8,5.6
			c-2.1,4.3-3.2,8.7-3.2,13.1c0,3.3,0.5,6.4,1.7,9.4c1.1,3,2.7,5.7,4.6,8c2,2.3,4.3,4.1,7.1,5.5c2.8,1.3,5.8,2,9.1,2
			c4.5,0,8.5-1.1,12.1-3.3c3.6-2.2,6.4-5.5,8.4-10c1-2.2,1.8-4.4,2.3-6.5c0.5-2.1,0.8-4.3,0.8-6.5c0-3.4-0.6-6.5-1.7-9.5
			C164.4,351,162.8,348.4,160.7,346.2z M156.7,376.3c-0.6,2.4-1.4,4.3-2.5,5.7c-1.1,1.5-2.3,2.5-3.7,3.1c-1.4,0.6-2.9,0.9-4.6,0.9
			c-2.3,0-4.4-0.7-6.3-2.1c-1.9-1.4-3.5-3.2-4.7-5.6c-1.3-2.3-2.3-5.1-3-8.2c-0.7-3.1-1-6.4-1-9.8c0-3.2,0.3-6,1-8.3
			c0.6-2.3,1.5-4.1,2.6-5.6c1.1-1.5,2.3-2.5,3.7-3.2c1.4-0.7,2.9-1,4.5-1c2.4,0,4.5,0.7,6.3,2c1.8,1.3,3.4,3.1,4.7,5.4
			c1.3,2.3,2.2,4.9,2.9,8c0.7,3.1,1,6.3,1,9.7C157.6,371,157.3,373.9,156.7,376.3z M416.3,357.3c-6.4,0-11.5,5.2-11.5,11.6
			c0,6.4,5.2,11.6,11.5,11.6c6.4,0,11.5-5.2,11.5-11.6C427.9,362.4,422.7,357.3,416.3,357.3z"/>
	</g>
</g>
<path fill-rule="evenodd" clip-rule="evenodd" fill="#2982EE" d="M275.8,160.9c0,29-23.4,52.5-52.3,52.5
	c-28.9,0-52.3-23.5-52.3-52.5c0-29,23.4-52.5,52.3-52.5C252.4,108.4,275.8,131.9,275.8,160.9L275.8,160.9z M223.5,129.9
	c-17,0-30.9,13.9-30.9,31c0,17.1,13.8,31,30.9,31c17,0,30.9-13.9,30.9-31C254.3,143.8,240.5,129.9,223.5,129.9L223.5,129.9z"/>
</svg>
